<svg xmlns="http://www.w3.org/2000/svg" width="264.74" height="35" viewBox="0 0 264.74 35"><rect class="svg__rect" x="0" y="0" width="127.25" height="35" fill="#005384"/><rect class="svg__rect" x="125.25" y="0" width="139.49" height="35" fill="#C13B3A"/><path class="svg__text" d="M15.70 22L14.22 22L14.22 13.47L17.48 13.47Q18.91 13.47 19.75 14.21Q20.59 14.96 20.59 16.18L20.59 16.18Q20.59 17.44 19.77 18.13Q18.95 18.83 17.46 18.83L17.46 18.83L15.70 18.83L15.70 22ZM15.70 14.66L15.70 17.64L17.48 17.64Q18.27 17.64 18.69 17.27Q19.10 16.90 19.10 16.19L19.10 16.19Q19.10 15.50 18.68 15.09Q18.26 14.68 17.52 14.66L17.52 14.66L15.70 14.66ZM24.61 18.00L24.61 18.00L24.61 17.52Q24.61 16.28 25.05 15.32Q25.49 14.37 26.30 13.86Q27.10 13.35 28.14 13.35Q29.19 13.35 29.99 13.85Q30.80 14.35 31.24 15.29Q31.68 16.23 31.68 17.48L31.68 17.48L31.68 17.96Q31.68 19.21 31.25 20.16Q30.82 21.10 30.01 21.61Q29.21 22.12 28.16 22.12L28.16 22.12Q27.12 22.12 26.31 21.61Q25.50 21.10 25.05 20.17Q24.61 19.23 24.61 18.00ZM26.09 17.46L26.09 17.96Q26.09 19.36 26.64 20.13Q27.18 20.90 28.16 20.90L28.16 20.90Q29.14 20.90 29.67 20.15Q30.20 19.40 30.20 17.96L30.20 17.96L30.20 17.51Q30.20 16.09 29.67 15.34Q29.13 14.58 28.14 14.58L28.14 14.58Q27.18 14.58 26.64 15.33Q26.10 16.09 26.09 17.46L26.09 17.46ZM37.53 22L35.56 13.47L37.03 13.47L38.36 19.88L39.99 13.47L41.23 13.47L42.84 19.89L44.15 13.47L45.62 13.47L43.65 22L42.24 22L40.61 15.77L38.96 22L37.53 22ZM55.27 22L49.70 22L49.70 13.47L55.23 13.47L55.23 14.66L51.18 14.66L51.18 17.02L54.68 17.02L54.68 18.19L51.18 18.19L51.18 20.82L55.27 20.82L55.27 22ZM60.95 22L59.47 22L59.47 13.47L62.47 13.47Q63.95 13.47 64.75 14.13Q65.55 14.79 65.55 16.05L65.55 16.05Q65.55 16.90 65.14 17.48Q64.72 18.06 63.99 18.37L63.99 18.37L65.90 21.92L65.90 22L64.31 22L62.60 18.71L60.95 18.71L60.95 22ZM60.95 14.66L60.95 17.52L62.48 17.52Q63.23 17.52 63.65 17.15Q64.07 16.77 64.07 16.11L64.07 16.11Q64.07 15.43 63.68 15.05Q63.29 14.68 62.52 14.66L62.52 14.66L60.95 14.66ZM75.52 22L69.95 22L69.95 13.47L75.48 13.47L75.48 14.66L71.43 14.66L71.43 17.02L74.93 17.02L74.93 18.19L71.43 18.19L71.43 20.82L75.52 20.82L75.52 22ZM82.17 22L79.72 22L79.72 13.47L82.24 13.47Q83.37 13.47 84.25 13.97Q85.12 14.48 85.60 15.40Q86.08 16.33 86.08 17.52L86.08 17.52L86.08 17.95Q86.08 19.16 85.60 20.08Q85.12 21.00 84.22 21.50Q83.33 22 82.17 22L82.17 22ZM81.20 14.66L81.20 20.82L82.17 20.82Q83.33 20.82 83.96 20.09Q84.58 19.36 84.59 17.99L84.59 17.99L84.59 17.52Q84.59 16.13 83.99 15.40Q83.39 14.66 82.24 14.66L82.24 14.66L81.20 14.66ZM99.64 22L96.52 22L96.52 13.47L99.45 13.47Q100.89 13.47 101.65 14.05Q102.41 14.63 102.41 15.78L102.41 15.78Q102.41 16.36 102.09 16.83Q101.77 17.30 101.16 17.56L101.16 17.56Q101.86 17.75 102.23 18.26Q102.61 18.78 102.61 19.51L102.61 19.51Q102.61 20.71 101.84 21.36Q101.07 22 99.64 22L99.64 22ZM98.01 18.15L98.01 20.82L99.65 20.82Q100.35 20.82 100.74 20.47Q101.14 20.13 101.14 19.51L101.14 19.51Q101.14 18.18 99.78 18.15L99.78 18.15L98.01 18.15ZM98.01 14.66L98.01 17.06L99.46 17.06Q100.15 17.06 100.54 16.75Q100.93 16.43 100.93 15.86L100.93 15.86Q100.93 15.23 100.57 14.95Q100.21 14.66 99.45 14.66L99.45 14.66L98.01 14.66ZM109.12 18.86L106.26 13.47L107.90 13.47L109.87 17.51L111.83 13.47L113.47 13.47L110.61 18.86L110.61 22L109.12 22L109.12 18.86Z" fill="#FFFFFF"/><path class="svg__text" d="M141.52 22L138.79 13.60L141.24 13.60L142.93 18.96L144.71 13.60L146.89 13.60L148.58 19.01L150.35 13.60L152.62 13.60L149.89 22L147.35 22L145.74 16.89L144.06 22L141.52 22ZM159.51 22L157.13 22L157.13 13.60L159.51 13.60L159.51 22ZM167.01 22L164.68 22L164.68 13.60L166.64 13.60L170.35 18.07L170.35 13.60L172.67 13.60L172.67 22L170.72 22L167.01 17.52L167.01 22ZM184.58 22L177.83 22L177.83 13.60L184.43 13.60L184.43 15.44L180.19 15.44L180.19 16.85L183.92 16.85L183.92 18.63L180.19 18.63L180.19 20.17L184.58 20.17L184.58 22ZM198.55 22L196.36 22L196.36 13.60L198.31 13.60L201.27 18.45L204.15 13.60L206.10 13.60L206.12 22L203.94 22L203.92 17.55L201.76 21.17L200.70 21.17L198.55 17.67L198.55 22ZM212.70 22L210.28 22L213.99 13.60L216.33 13.60L220.05 22L217.58 22L216.92 20.37L213.37 20.37L212.70 22ZM215.14 15.93L214.06 18.61L216.22 18.61L215.14 15.93ZM223.77 17.80L223.77 17.80Q223.77 16.54 224.37 15.54Q224.97 14.55 226.04 13.99Q227.11 13.43 228.45 13.43L228.45 13.43Q229.63 13.43 230.56 13.83Q231.50 14.22 232.12 14.97L232.12 14.97L230.61 16.33Q229.77 15.40 228.59 15.40L228.59 15.40Q228.58 15.40 228.57 15.40L228.57 15.40Q227.49 15.40 226.83 16.06Q226.17 16.71 226.17 17.80L226.17 17.80Q226.17 18.50 226.47 19.04Q226.77 19.59 227.31 19.89Q227.85 20.20 228.55 20.20L228.55 20.20Q229.23 20.20 229.83 19.93L229.83 19.93L229.83 17.62L231.93 17.62L231.93 21.10Q231.21 21.61 230.27 21.89Q229.34 22.17 228.40 22.17L228.40 22.17Q227.08 22.17 226.02 21.61Q224.97 21.05 224.37 20.05Q223.77 19.06 223.77 17.80ZM239.30 22L236.92 22L236.92 13.60L239.30 13.60L239.30 22ZM244.05 17.80L244.05 17.80Q244.05 16.54 244.64 15.54Q245.24 14.55 246.29 13.99Q247.34 13.43 248.66 13.43L248.66 13.43Q249.82 13.43 250.74 13.84Q251.66 14.25 252.28 15.02L252.28 15.02L250.77 16.39Q249.95 15.40 248.79 15.40L248.79 15.40Q248.10 15.40 247.57 15.70Q247.03 16 246.74 16.54Q246.44 17.09 246.44 17.80L246.44 17.80Q246.44 18.51 246.74 19.05Q247.03 19.60 247.57 19.90Q248.10 20.20 248.79 20.20L248.79 20.20Q249.95 20.20 250.77 19.22L250.77 19.22L252.28 20.58Q251.67 21.35 250.74 21.76Q249.82 22.17 248.66 22.17L248.66 22.17Q247.34 22.17 246.29 21.61Q245.24 21.05 244.64 20.05Q244.05 19.06 244.05 17.80Z" fill="#FFFFFF" x="138.25"/></svg>